<mxfile host="app.diagrams.net" modified="2024-06-01T08:57:42.399Z" agent="Mozilla/5.0 (Windows NT 10.0; Win64; x64) AppleWebKit/537.36 (KHTML, like Gecko) Chrome/125.0.0.0 Safari/537.36" version="24.4.4" etag="IajKe7U3h2HF6Dal10Qo" type="github">
  <diagram name="Page-1" id="CuzAm4SWe1AQlF8FSPvw">
    <mxGraphModel>
      <root>
        <mxCell id="0" />
        <mxCell id="1" parent="0" />
      </root>
    </mxGraphModel>
  </diagram>
</mxfile>
